<mxfile host="app.diagrams.net" modified="2024-03-17T17:15:46.082Z" agent="Mozilla/5.0 (Macintosh; Intel Mac OS X 10_15_7) AppleWebKit/605.1.15 (KHTML, like Gecko) Version/17.2 Safari/605.1.15" version="24.0.7" etag="q5J5gKr4amx7MC0NX3P0" type="github">
  <diagram name="PÃ¡gina-1" id="EATetN6ND8YNAl9qvNaY">
    <mxGraphModel>
      <root>
        <mxCell id="0" />
        <mxCell id="1" parent="0" />
      </root>
    </mxGraphModel>
  </diagram>
</mxfile>
